<svg width="50" height="16" viewBox="0 0 50 16" fill="none" xmlns="http://www.w3.org/2000/svg">
<path d="M17.7537 15.1696L20.28 0.348932H24.3193L21.7923 15.1696H17.7537ZM36.3679 0.674064C35.2087 0.254149 33.9841 0.0434404 32.7512 0.0517502C28.7648 0.0517502 25.9564 2.05937 25.9322 4.93729C25.9103 7.06435 27.9375 8.25073 29.468 8.9585C31.0385 9.6844 31.5663 10.1472 31.5588 10.7952C31.549 11.7873 30.3043 12.2402 29.1451 12.2402C27.53 12.2402 26.6725 12.0134 25.3469 11.4637L24.8275 11.2285L24.2611 14.542C25.2033 14.9548 26.9462 15.3132 28.755 15.3314C32.9962 15.3314 35.7494 13.3472 35.7811 10.2742C35.7963 8.59024 34.7225 7.30856 32.3936 6.25222C30.9834 5.57168 30.1198 5.11042 30.1289 4.41703C30.1289 3.80227 30.8601 3.14445 32.4397 3.14445C33.4746 3.12128 34.503 3.31444 35.459 3.71157L35.8205 3.88244L36.3679 0.674064V0.674064ZM46.7454 0.348932H43.6376C42.675 0.348932 41.9544 0.612087 41.5317 1.5724L35.5581 15.0939H39.8099C39.8099 15.0939 40.4905 13.2958 40.647 12.9011L45.7412 12.9071C45.8599 13.4183 46.2252 15.0939 46.2252 15.0939H49.9999L46.7454 0.348932ZM41.8039 9.87648C42.1374 9.02353 43.4115 5.73878 43.4115 5.73878C43.3873 5.7781 43.7427 4.88131 43.9461 4.32554L44.2191 5.60195C44.2191 5.60195 44.9919 9.13545 45.1529 9.87648H41.8039ZM14.326 0.348932L10.3849 10.4201L9.96526 8.37325C9.23179 6.01405 6.94594 3.45825 4.39014 2.17884L7.99398 15.0939L12.2526 15.0894L18.59 0.348932H14.3064" fill="url(#paint0_linear_2601_202)"/>
<path d="M6.53014 0.348487H0.0521702L0 0.656228C5.0617 1.88195 8.41068 4.84307 9.80125 8.40002L8.38648 1.59463C8.14225 0.657752 7.43451 0.377974 6.55813 0.345459" fill="url(#paint1_linear_2601_202)"/>
<defs>
<linearGradient id="paint0_linear_2601_202" x1="27.195" y1="0.0515137" x2="27.195" y2="15.3314" gradientUnits="userSpaceOnUse">
<stop stop-color="white"/>
<stop offset="1" stop-color="white" stop-opacity="0.75"/>
</linearGradient>
<linearGradient id="paint1_linear_2601_202" x1="4.90062" y1="0.345459" x2="4.90062" y2="8.40002" gradientUnits="userSpaceOnUse">
<stop stop-color="white"/>
<stop offset="1" stop-color="white" stop-opacity="0.75"/>
</linearGradient>
</defs>
</svg>
